<svg width="88" height="88" viewBox="0 0 88 88" fill="none" xmlns="http://www.w3.org/2000/svg">
<path d="M22.976 61V26.92H32.384V61H22.976ZM47.4913 61.768C43.9073 61.768 40.8193 61.048 38.2273 59.608C35.6353 58.168 33.6513 56.12 32.2753 53.464C30.8993 50.808 30.2113 47.656 30.2113 44.008C30.2113 40.36 30.8993 37.208 32.2753 34.552C33.6513 31.864 35.6353 29.8 38.2273 28.36C40.8193 26.888 43.9073 26.152 47.4913 26.152C51.1073 26.152 54.1953 26.888 56.7553 28.36C59.3473 29.8 61.3313 31.864 62.7073 34.552C64.0833 37.208 64.7713 40.36 64.7713 44.008C64.7713 47.656 64.0833 50.808 62.7073 53.464C61.3313 56.12 59.3473 58.168 56.7553 59.608C54.1953 61.048 51.1073 61.768 47.4913 61.768ZM47.4913 54.232C49.0913 54.232 50.4513 53.832 51.5713 53.032C52.7233 52.232 53.6033 51.08 54.2113 49.576C54.8193 48.04 55.1233 46.184 55.1233 44.008C55.1233 41.832 54.8193 39.976 54.2113 38.44C53.6033 36.904 52.7233 35.736 51.5713 34.936C50.4513 34.104 49.0913 33.688 47.4913 33.688C45.8913 33.688 44.5153 34.104 43.3633 34.936C42.2433 35.736 41.3793 36.904 40.7713 38.44C40.1633 39.976 39.8593 41.832 39.8593 44.008C39.8593 46.184 40.1633 48.04 40.7713 49.576C41.3793 51.08 42.2433 52.232 43.3633 53.032C44.5153 53.832 45.8913 54.232 47.4913 54.232Z" fill="white"/>
<rect x="4" y="4" width="80" height="80" rx="8" stroke="white" stroke-width="8"/>
</svg>
