<svg width="88" height="88" viewBox="0 0 88 88" fill="none" xmlns="http://www.w3.org/2000/svg">
<mask id="path-1-outside-1_29_93" maskUnits="userSpaceOnUse" x="21" y="25" width="45" height="38" fill="black">
<rect fill="white" x="21" y="25" width="45" height="38"/>
<path d="M22.976 61V26.92H32.384V61H22.976ZM47.4913 61.768C43.9073 61.768 40.8193 61.048 38.2273 59.608C35.6353 58.168 33.6513 56.12 32.2753 53.464C30.8993 50.808 30.2113 47.656 30.2113 44.008C30.2113 40.36 30.8993 37.208 32.2753 34.552C33.6513 31.864 35.6353 29.8 38.2273 28.36C40.8193 26.888 43.9073 26.152 47.4913 26.152C51.1073 26.152 54.1953 26.888 56.7553 28.36C59.3473 29.8 61.3313 31.864 62.7073 34.552C64.0833 37.208 64.7713 40.36 64.7713 44.008C64.7713 47.656 64.0833 50.808 62.7073 53.464C61.3313 56.12 59.3473 58.168 56.7553 59.608C54.1953 61.048 51.1073 61.768 47.4913 61.768ZM47.4913 54.232C49.0913 54.232 50.4513 53.832 51.5713 53.032C52.7233 52.232 53.6033 51.08 54.2113 49.576C54.8193 48.04 55.1233 46.184 55.1233 44.008C55.1233 41.832 54.8193 39.976 54.2113 38.44C53.6033 36.904 52.7233 35.736 51.5713 34.936C50.4513 34.104 49.0913 33.688 47.4913 33.688C45.8913 33.688 44.5153 34.104 43.3633 34.936C42.2433 35.736 41.3793 36.904 40.7713 38.44C40.1633 39.976 39.8593 41.832 39.8593 44.008C39.8593 46.184 40.1633 48.04 40.7713 49.576C41.3793 51.08 42.2433 52.232 43.3633 53.032C44.5153 53.832 45.8913 54.232 47.4913 54.232Z"/>
</mask>
<path d="M22.976 61V26.92H32.384V61H22.976ZM47.4913 61.768C43.9073 61.768 40.8193 61.048 38.2273 59.608C35.6353 58.168 33.6513 56.12 32.2753 53.464C30.8993 50.808 30.2113 47.656 30.2113 44.008C30.2113 40.36 30.8993 37.208 32.2753 34.552C33.6513 31.864 35.6353 29.8 38.2273 28.36C40.8193 26.888 43.9073 26.152 47.4913 26.152C51.1073 26.152 54.1953 26.888 56.7553 28.36C59.3473 29.8 61.3313 31.864 62.7073 34.552C64.0833 37.208 64.7713 40.36 64.7713 44.008C64.7713 47.656 64.0833 50.808 62.7073 53.464C61.3313 56.12 59.3473 58.168 56.7553 59.608C54.1953 61.048 51.1073 61.768 47.4913 61.768ZM47.4913 54.232C49.0913 54.232 50.4513 53.832 51.5713 53.032C52.7233 52.232 53.6033 51.08 54.2113 49.576C54.8193 48.04 55.1233 46.184 55.1233 44.008C55.1233 41.832 54.8193 39.976 54.2113 38.44C53.6033 36.904 52.7233 35.736 51.5713 34.936C50.4513 34.104 49.0913 33.688 47.4913 33.688C45.8913 33.688 44.5153 34.104 43.3633 34.936C42.2433 35.736 41.3793 36.904 40.7713 38.44C40.1633 39.976 39.8593 41.832 39.8593 44.008C39.8593 46.184 40.1633 48.04 40.7713 49.576C41.3793 51.08 42.2433 52.232 43.3633 53.032C44.5153 53.832 45.8913 54.232 47.4913 54.232Z" fill="#1E1E1E"/>
<path d="M22.976 61H21.976V62H22.976V61ZM22.976 26.92V25.92H21.976V26.92H22.976ZM32.384 26.92H33.384V25.92H32.384V26.92ZM32.384 61V62H33.384V61H32.384ZM22.976 61H23.976V26.92H22.976H21.976V61H22.976ZM22.976 26.92V27.92H32.384V26.92V25.92H22.976V26.92ZM32.384 26.92H31.384V61H32.384H33.384V26.92H32.384ZM32.384 61V60H22.976V61V62H32.384V61ZM38.2273 59.608L38.7129 58.7338V58.7338L38.2273 59.608ZM32.2753 53.464L33.1632 53.004V53.004L32.2753 53.464ZM32.2753 34.552L33.1632 35.012L33.1654 35.0077L32.2753 34.552ZM38.2273 28.36L38.7129 29.2342L38.7211 29.2296L38.2273 28.36ZM56.7553 28.36L56.2568 29.2269L56.2632 29.2306L56.2696 29.2342L56.7553 28.36ZM62.7073 34.552L61.8171 35.0077L61.8193 35.012L62.7073 34.552ZM62.7073 53.464L61.8193 53.004V53.004L62.7073 53.464ZM56.7553 59.608L56.2696 58.7338L56.265 58.7364L56.7553 59.608ZM51.5713 53.032L51.0008 52.2106L50.99 52.2183L51.5713 53.032ZM54.2113 49.576L55.1384 49.9508L55.1411 49.944L54.2113 49.576ZM54.2113 38.44L55.1411 38.072V38.072L54.2113 38.44ZM51.5713 34.936L50.9749 35.7387L50.9877 35.7483L51.0009 35.7574L51.5713 34.936ZM43.3633 34.936L43.9445 35.7497L43.9487 35.7467L43.3633 34.936ZM40.7713 38.44L41.7011 38.808V38.808L40.7713 38.44ZM40.7713 49.576L39.8414 49.9441L39.8441 49.9508L40.7713 49.576ZM43.3633 53.032L42.782 53.8458L42.7929 53.8534L43.3633 53.032ZM47.4913 61.768V60.768C44.0419 60.768 41.1283 60.0757 38.7129 58.7338L38.2273 59.608L37.7416 60.4822C40.5102 62.0203 43.7726 62.768 47.4913 62.768V61.768ZM38.2273 59.608L38.7129 58.7338C36.2944 57.3902 34.4496 55.487 33.1632 53.004L32.2753 53.464L31.3873 53.924C32.8529 56.753 34.9761 58.9458 37.7416 60.4822L38.2273 59.608ZM32.2753 53.464L33.1632 53.004C31.8753 50.5181 31.2113 47.5306 31.2113 44.008H30.2113H29.2113C29.2113 47.7814 29.9232 51.0979 31.3873 53.924L32.2753 53.464ZM30.2113 44.008H31.2113C31.2113 40.4854 31.8753 37.4979 33.1632 35.012L32.2753 34.552L31.3873 34.092C29.9232 36.9181 29.2113 40.2346 29.2113 44.008H30.2113ZM32.2753 34.552L33.1654 35.0077C34.4528 32.4927 36.2976 30.576 38.7129 29.2342L38.2273 28.36L37.7416 27.4858C34.9729 29.024 32.8497 31.2353 31.3851 34.0963L32.2753 34.552ZM38.2273 28.36L38.7211 29.2296C41.1348 27.8588 44.0454 27.152 47.4913 27.152V26.152V25.152C43.7691 25.152 40.5037 25.9172 37.7334 27.4904L38.2273 28.36ZM47.4913 26.152V27.152C50.9714 27.152 53.879 27.8597 56.2568 29.2269L56.7553 28.36L57.2537 27.4931C54.5115 25.9163 51.2431 25.152 47.4913 25.152V26.152ZM56.7553 28.36L56.2696 29.2342C58.6849 30.576 60.5297 32.4927 61.8171 35.0077L62.7073 34.552L63.5974 34.0963C62.1328 31.2353 60.0096 29.024 57.2409 27.4858L56.7553 28.36ZM62.7073 34.552L61.8193 35.012C63.1072 37.4979 63.7713 40.4854 63.7713 44.008H64.7713H65.7713C65.7713 40.2346 65.0593 36.9181 63.5952 34.092L62.7073 34.552ZM64.7713 44.008H63.7713C63.7713 47.5306 63.1072 50.5181 61.8193 53.004L62.7073 53.464L63.5952 53.924C65.0593 51.0979 65.7713 47.7814 65.7713 44.008H64.7713ZM62.7073 53.464L61.8193 53.004C60.5329 55.487 58.6881 57.3902 56.2696 58.7338L56.7553 59.608L57.2409 60.4822C60.0064 58.9458 62.1296 56.753 63.5952 53.924L62.7073 53.464ZM56.7553 59.608L56.265 58.7364C53.8856 60.0748 50.9748 60.768 47.4913 60.768V61.768V62.768C51.2397 62.768 54.5049 62.0211 57.2455 60.4796L56.7553 59.608ZM47.4913 54.232V55.232C49.2647 55.232 50.8365 54.7857 52.1525 53.8457L51.5713 53.032L50.99 52.2183C50.066 52.8783 48.9178 53.232 47.4913 53.232V54.232ZM51.5713 53.032L52.1416 53.8534C53.4773 52.9258 54.4691 51.6062 55.1384 49.9508L54.2113 49.576L53.2841 49.2012C52.7374 50.5538 51.9692 51.5382 51.0009 52.2106L51.5713 53.032ZM54.2113 49.576L55.1411 49.944C55.8076 48.2602 56.1233 46.2722 56.1233 44.008H55.1233H54.1233C54.1233 46.0958 53.8309 47.8198 53.2814 49.208L54.2113 49.576ZM55.1233 44.008H56.1233C56.1233 41.7438 55.8076 39.7558 55.1411 38.072L54.2113 38.44L53.2814 38.808C53.8309 40.1962 54.1233 41.9202 54.1233 44.008H55.1233ZM54.2113 38.44L55.1411 38.072C54.4737 36.386 53.4826 35.0458 52.1416 34.1146L51.5713 34.936L51.0009 35.7574C51.9639 36.4262 52.7328 37.422 53.2814 38.808L54.2113 38.44ZM51.5713 34.936L52.1676 34.1333C50.8505 33.1549 49.2732 32.688 47.4913 32.688V33.688V34.688C48.9093 34.688 50.052 35.0531 50.9749 35.7387L51.5713 34.936ZM47.4913 33.688V32.688C45.7087 32.688 44.1213 33.155 42.7778 34.1253L43.3633 34.936L43.9487 35.7467C44.9092 35.053 46.0738 34.688 47.4913 34.688V33.688ZM43.3633 34.936L42.782 34.1223C41.4764 35.0549 40.506 36.3932 39.8414 38.072L40.7713 38.44L41.7011 38.808C42.2525 37.4148 43.0101 36.4171 43.9445 35.7497L43.3633 34.936ZM40.7713 38.44L39.8414 38.072C39.1749 39.7558 38.8593 41.7438 38.8593 44.008H39.8593H40.8593C40.8593 41.9202 41.1516 40.1962 41.7011 38.808L40.7713 38.44ZM39.8593 44.008H38.8593C38.8593 46.2722 39.1749 48.2602 39.8414 49.944L40.7713 49.576L41.7011 49.208C41.1516 47.8198 40.8593 46.0958 40.8593 44.008H39.8593ZM40.7713 49.576L39.8441 49.9508C40.5105 51.599 41.4815 52.9168 42.782 53.8457L43.3633 53.032L43.9445 52.2183C43.005 51.5472 42.2481 50.561 41.6984 49.2012L40.7713 49.576ZM43.3633 53.032L42.7929 53.8534C44.1352 54.7855 45.7171 55.232 47.4913 55.232V54.232V53.232C46.0654 53.232 44.8953 52.8785 43.9336 52.2106L43.3633 53.032Z" fill="#1F1F1F" mask="url(#path-1-outside-1_29_93)"/>
<rect x="4" y="4" width="80" height="80" rx="8" stroke="#1F1F1F" stroke-width="8"/>
</svg>
